
<svg version="1.0" xmlns="http://www.w3.org/2000/svg"
 width="192.000000pt" height="192.000000pt" viewBox="0 0 192.000000 192.000000"
 preserveAspectRatio="xMidYMid meet">

<g transform="translate(0.000000,192.000000) scale(0.100000,-0.100000)"
fill="#370097" stroke="none">
<path d="M1140 1845 c-10 -12 -10 -18 0 -30 16 -19 39 -19 46 0 6 15 -11 45
-26 45 -4 0 -13 -7 -20 -15z"/>
<path d="M740 1819 c-69 -28 -101 -100 -74 -168 39 -97 175 -110 228 -21 37
63 7 158 -59 186 -39 16 -60 17 -95 3z"/>
<path d="M1272 1818 c-35 -35 15 -99 53 -68 30 25 12 80 -25 80 -9 0 -21 -5
-28 -12z"/>
<path d="M417 1719 c-9 -5 -24 -23 -32 -39 -48 -92 44 -192 133 -146 75 39 84
125 18 178 -23 19 -91 23 -119 7z"/>
<path d="M1032 1705 c-58 -49 -46 -139 23 -172 32 -15 40 -16 77 -3 56 20 85
73 68 125 -24 74 -109 99 -168 50z"/>
<path d="M1440 1710 c-33 -33 -30 -75 6 -107 31 -28 54 -29 88 -2 19 15 26 30
26 54 0 62 -77 98 -120 55z"/>
<path d="M230 1533 c-51 -19 -68 -85 -30 -123 45 -45 120 -11 120 53 0 47 -49
85 -90 70z"/>
<path d="M1303 1532 c-51 -8 -70 -83 -30 -120 46 -43 120 -15 120 46 0 51 -38
82 -90 74z"/>
<path d="M1614 1530 c-36 -14 -64 -59 -64 -102 0 -56 43 -98 100 -98 52 0 76
13 95 50 30 59 13 115 -45 145 -32 17 -55 18 -86 5z"/>
<path d="M750 1477 c0 -27 19 -40 39 -27 20 12 8 45 -17 48 -18 3 -22 -1 -22
-21z"/>
<path d="M602 1458 c-29 -29 -3 -72 40 -66 19 2 23 9 23 38 0 30 -4 35 -25 38
-14 2 -31 -3 -38 -10z"/>
<path d="M390 1358 c-26 -28 -26 -58 1 -92 15 -19 30 -26 54 -26 24 0 39 7 54
26 26 34 26 54 0 88 -27 34 -79 36 -109 4z"/>
<path d="M92 1308 c-17 -17 -15 -44 4 -62 20 -21 30 -20 54 4 24 24 25 34 4
54 -18 19 -45 21 -62 4z"/>
<path d="M1412 1308 c-33 -33 6 -91 47 -69 27 15 32 35 15 60 -17 23 -44 27
-62 9z"/>
<path d="M1649 1227 c-39 -26 -63 -85 -54 -129 15 -65 93 -116 154 -101 65 16
101 64 101 134 0 35 -6 48 -39 80 -33 34 -45 39 -83 39 -30 0 -56 -8 -79 -23z"/>
<path d="M212 1165 c-38 -32 -48 -72 -28 -118 29 -70 111 -85 168 -30 22 21
28 36 28 71 0 90 -99 135 -168 77z"/>
<path d="M54 1145 c-8 -19 3 -35 26 -35 19 0 30 17 23 38 -6 17 -42 15 -49 -3z"/>
<path d="M1464 1145 c-8 -19 3 -35 26 -35 19 0 30 17 23 38 -6 17 -42 15 -49
-3z"/>
<path d="M1594 892 c-52 -42 -58 -106 -15 -154 25 -28 36 -33 76 -33 40 0 51
5 76 33 44 49 36 115 -21 159 -22 18 -92 15 -116 -5z"/>
<path d="M143 880 c-87 -53 -81 -179 11 -221 23 -10 50 -19 61 -19 34 0 88 35
107 71 62 116 -67 238 -179 169z"/>
<path d="M424 775 c-8 -21 2 -45 19 -45 8 0 20 7 27 15 10 12 10 18 0 30 -7 8
-19 15 -27 15 -7 0 -16 -7 -19 -15z"/>
<path d="M1834 776 c-9 -24 4 -48 23 -44 12 2 18 12 18 28 0 29 -32 41 -41 16z"/>
<path d="M460 646 c-6 -8 -10 -25 -8 -38 2 -19 9 -23 38 -23 29 0 36 4 38 23
4 28 -14 52 -38 52 -10 0 -23 -7 -30 -14z"/>
<path d="M1448 646 c-43 -32 -38 -103 8 -125 35 -16 47 -14 78 10 19 15 26 30
26 54 0 57 -69 94 -112 61z"/>
<path d="M1780 646 c-6 -8 -10 -25 -8 -38 2 -19 9 -23 38 -23 29 0 36 4 38 23
4 28 -14 52 -38 52 -10 0 -23 -7 -30 -14z"/>
<path d="M233 560 c-13 -5 -32 -24 -43 -42 -64 -103 75 -214 161 -129 23 24
29 38 29 73 -1 81 -71 128 -147 98z"/>
<path d="M566 489 c-52 -41 -21 -129 46 -129 65 0 94 88 42 129 -15 12 -34 21
-44 21 -10 0 -29 -9 -44 -21z"/>
<path d="M1272 498 c-34 -34 6 -90 48 -68 35 19 20 80 -20 80 -9 0 -21 -5 -28
-12z"/>
<path d="M1653 500 c-46 -19 -57 -83 -20 -118 39 -37 99 -24 118 25 13 35 -4
77 -37 92 -29 13 -31 13 -61 1z"/>
<path d="M1140 434 c-11 -12 -10 -18 3 -32 16 -15 18 -15 33 0 19 18 12 48 -9
48 -8 0 -20 -7 -27 -16z"/>
<path d="M759 341 c-85 -86 26 -225 129 -161 61 38 69 105 18 156 -46 46 -104
48 -147 5z"/>
<path d="M1391 344 c-57 -48 -47 -135 19 -169 44 -23 76 -18 115 16 30 27 35
37 35 76 0 92 -98 137 -169 77z"/>
<path d="M1093 315 c-66 -28 -92 -118 -53 -182 35 -58 98 -77 165 -49 94 40
97 178 4 228 -40 21 -72 22 -116 3z"/>
<path d="M391 284 c-12 -15 -21 -37 -21 -50 0 -62 90 -88 129 -38 26 34 26 54
0 88 -28 36 -80 36 -108 0z"/>
<path d="M602 138 c-29 -29 -3 -72 40 -66 19 2 23 9 23 38 0 30 -4 35 -25 38
-14 2 -31 -3 -38 -10z"/>
<path d="M757 87 c-22 -16 -13 -47 14 -47 25 0 36 28 17 46 -11 12 -17 12 -31
1z"/>
</g>
</svg>
